<svg height="542pt" viewBox="-17 -70 542.66892 542" width="542pt" xmlns="http://www.w3.org/2000/svg"><path d="m494.957031 356.5625h-324.476562c-4.707031 0-8.527344-3.8125-8.527344-8.519531s3.820313-8.527344 8.527344-8.527344h324.476562c4.707031 0 8.527344 3.820313 8.527344 8.527344s-3.820313 8.519531-8.527344 8.519531zm0 0"/><path d="m115.277344 356.5625c-4.683594 0-8.496094-3.773438-8.527344-8.46875-.027344-4.707031 3.765625-8.550781 8.472656-8.578125l9.859375-.0625c4.613281-.230469 8.546875 3.765625 8.574219 8.472656.03125 4.707031-3.761719 8.550781-8.472656 8.578125l-9.851563.058594c-.015625 0-.039062 0-.054687 0zm0 0"/><path d="m75.414062 356.5625h-66.886718c-4.710938 0-8.527344-3.8125-8.527344-8.519531s3.816406-8.527344 8.527344-8.527344h66.886718c4.707032 0 8.527344 3.820313 8.527344 8.527344s-3.820312 8.519531-8.527344 8.519531zm0 0"/><path d="m491.699219 399.128906h-110.824219c-4.707031 0-8.519531-3.820312-8.519531-8.527344 0-4.707031 3.8125-8.523437 8.519531-8.523437h110.824219c4.710937 0 8.527343 3.816406 8.527343 8.523437 0 4.707032-3.816406 8.527344-8.527343 8.527344zm0 0"/><path d="m338.253906 399.128906h-25.574218c-4.710938 0-8.523438-3.820312-8.523438-8.527344 0-4.707031 3.8125-8.523437 8.523438-8.523437h25.574218c4.707032 0 8.527344 3.816406 8.527344 8.523437 0 4.707032-3.820312 8.527344-8.527344 8.527344zm0 0"/><path d="m278.582031 399.128906h-17.050781c-4.710938 0-8.527344-3.820312-8.527344-8.527344 0-4.707031 3.816406-8.523437 8.527344-8.523437h17.050781c4.707031 0 8.519531 3.816406 8.519531 8.523437 0 4.707032-3.8125 8.527344-8.519531 8.527344zm0 0"/><path d="m227.429688 399.128906h-76.722657c-4.707031 0-8.523437-3.820312-8.523437-8.527344 0-4.707031 3.816406-8.523437 8.523437-8.523437h76.722657c4.707031 0 8.527343 3.816406 8.527343 8.523437 0 4.707032-3.820312 8.527344-8.527343 8.527344zm0 0"/><path d="m108.082031 399.128906h-76.722656c-4.707031 0-8.523437-3.820312-8.523437-8.527344 0-4.707031 3.816406-8.523437 8.523437-8.523437h76.722656c4.707031 0 8.527344 3.816406 8.527344 8.523437 0 4.707032-3.820313 8.527344-8.527344 8.527344zm0 0"/><path d="m417.570312 313.882812h-386.929687c-3.570313 0-6.757813-2.222656-7.996094-5.5625l-22.113281-59.675781c-.96875-2.621093-.5976562-5.546875.996094-7.835937 1.59375-2.285156 4.210937-3.652344 7-3.652344h486.429687c3.648438 0 6.894531 2.320312 8.074219 5.769531 1.167969 3.460938.023438 7.277344-2.871094 9.507813l-77.386718 59.671875c-1.492188 1.152343-3.328126 1.777343-5.203126 1.777343zm-381.003906-17.054687h378.09375l55.28125-42.625h-449.164062zm0 0"/><path d="m449.074219 254.203125h-51.144531c-4.710938 0-8.527344-3.8125-8.527344-8.519531v-34.101563c0-4.707031 3.816406-8.527343 8.527344-8.527343h51.144531c4.707031 0 8.527343 3.820312 8.527343 8.527343v34.101563c0 4.707031-3.820312 8.519531-8.527343 8.519531zm-42.621094-17.046875h34.101563v-17.050781h-34.101563zm0 0"/><path d="m355.300781 254.203125h-281.316406c-4.707031 0-8.527344-3.8125-8.527344-8.519531v-34.101563c0-4.707031 3.820313-8.527343 8.527344-8.527343h281.316406c4.710938 0 8.527344 3.820312 8.527344 8.527343v34.101563c0 4.707031-3.816406 8.519531-8.527344 8.519531zm-272.792969-17.046875h264.273438v-17.050781h-264.273438zm0 0"/><path d="m321.203125 220.105469h-136.394531c-4.707032 0-8.527344-3.816407-8.527344-8.523438v-34.097656c0-4.710937 3.820312-8.527344 8.527344-8.527344h136.394531c4.707031 0 8.527344 3.816407 8.527344 8.527344v34.097656c0 4.707031-3.820313 8.523438-8.527344 8.523438zm-127.871094-17.050781h119.347657v-17.050782h-119.347657zm0 0"/><path d="m295.964844 186.003906h-85.582032c-4.707031 0-8.523437-3.8125-8.523437-8.519531v-34.101563c0-4.707031 3.816406-8.527343 8.523437-8.527343h85.582032c4.707031 0 8.523437 3.820312 8.523437 8.527343v34.101563c0 4.707031-3.816406 8.519531-8.523437 8.519531zm-77.0625-17.046875h68.535156v-17.046875h-68.535156zm0 0"/><path d="m142.183594 186.003906h-76.726563c-4.707031 0-8.519531-3.8125-8.519531-8.519531 0-4.710937 3.8125-8.527344 8.519531-8.527344h76.726563c4.707031 0 8.523437 3.816407 8.523437 8.527344 0 4.707031-3.816406 8.519531-8.523437 8.519531zm0 0"/><path d="m500.226562 220.105469h-102.296874c-4.710938 0-8.527344-3.816407-8.527344-8.523438s3.816406-8.527343 8.527344-8.527343h102.296874c4.707032 0 8.527344 3.820312 8.527344 8.527343s-3.820312 8.523438-8.527344 8.523438zm0 0"/><path d="m99.558594 220.105469c-4.707032 0-8.523438-3.816407-8.523438-8.523438v-34.097656c0-4.710937 3.816406-8.527344 8.523438-8.527344 4.707031 0 8.523437 3.816407 8.523437 8.527344v34.097656c0 4.707031-3.816406 8.523438-8.523437 8.523438zm0 0"/><path d="m253.003906 151.910156c-4.671875 0-8.480468-3.773437-8.523437-8.449218l-1.265625-138.050782c-.042969-4.707031 3.738281-8.566406 8.445312-8.605468h.078125c4.675781 0 8.480469 3.765624 8.527344 8.441406l1.265625 138.058594c.039062 4.707031-3.738281 8.558593-8.449219 8.605468-.027343 0-.050781 0-.078125 0zm0 0"/><path d="m295.628906 66.65625h-85.246094c-4.707031 0-8.527343-3.8125-8.527343-8.523438 0-4.707031 3.820312-8.523437 8.527343-8.523437h85.246094c4.707032 0 8.527344 3.816406 8.527344 8.523437 0 4.710938-3.820312 8.523438-8.527344 8.523438zm0 0"/><path d="m278.582031 100.757812h-51.152343c-4.707032 0-8.527344-3.820312-8.527344-8.527343s3.820312-8.519531 8.527344-8.519531h51.152343c4.707031 0 8.519531 3.8125 8.519531 8.519531s-3.8125 8.527343-8.519531 8.527343zm0 0"/></svg>